<svg width="500" height="500" viewBox="0 0 500 500" fill="none" xmlns="http://www.w3.org/2000/svg">
<path d="M133.772 197C137.414 197 140.347 199.965 140.347 203.574C140.347 207.184 137.414 210.116 133.772 210.148C130.131 210.148 127.198 207.184 127.198 203.574C127.198 199.933 130.163 197 133.772 197Z" fill="url(#paint0_linear_2744_817)"/>
<path d="M177.729 218.302C177.729 221.428 175.183 223.974 172.057 223.974C168.931 223.974 166.386 221.428 166.386 218.302C166.386 215.176 168.931 212.63 172.057 212.63C175.183 212.63 177.729 215.176 177.729 218.302Z" fill="url(#paint1_linear_2744_817)"/>
<path d="M165.225 240.538C168.061 240.538 170.382 238.218 170.382 235.382C170.382 232.546 168.061 230.226 165.225 230.226C162.389 230.226 160.069 232.546 160.069 235.382C160.069 238.218 162.389 240.538 165.225 240.538Z" fill="url(#paint2_linear_2744_817)"/>
<path d="M177.407 238.83C180.114 238.83 182.305 241.021 182.305 243.728C182.305 246.435 180.114 248.627 177.407 248.627C174.7 248.627 172.509 246.435 172.509 243.728C172.509 241.021 174.7 238.83 177.407 238.83Z" fill="url(#paint3_linear_2744_817)"/>
<path d="M155.976 249.368C155.976 246.629 158.2 244.437 160.907 244.437C163.646 244.437 165.838 246.629 165.838 249.368C165.838 252.107 163.646 254.299 160.907 254.299C158.168 254.299 155.976 252.107 155.976 249.368Z" fill="url(#paint4_linear_2744_817)"/>
<path d="M163.034 266.287C163.034 268.736 165.032 270.734 167.481 270.734C169.93 270.734 171.929 268.736 171.929 266.287C171.929 263.838 169.93 261.84 167.481 261.84C165 261.84 163.034 263.838 163.034 266.287Z" fill="url(#paint5_linear_2744_817)"/>
<path d="M171.993 260.68C169.447 260.68 167.352 258.617 167.352 256.039C167.352 253.493 169.415 251.398 171.993 251.398C174.539 251.398 176.634 253.461 176.634 256.039C176.634 258.585 174.571 260.68 171.993 260.68Z" fill="url(#paint6_linear_2744_817)"/>
<path d="M191.748 253.203C191.748 250.496 189.556 248.305 186.849 248.305C184.142 248.305 181.951 250.496 181.951 253.203C181.951 255.91 184.142 258.101 186.849 258.101C189.556 258.101 191.748 255.91 191.748 253.203Z" fill="url(#paint7_linear_2744_817)"/>
<path d="M157.427 265.546C154.848 265.546 152.786 263.483 152.786 260.905C152.786 258.327 154.848 256.265 157.427 256.265C160.005 256.265 162.067 258.359 162.067 260.905C162.067 263.451 159.972 265.546 157.427 265.546Z" fill="url(#paint8_linear_2744_817)"/>
<path d="M151.142 234.093C154.139 234.093 156.589 231.643 156.589 228.646C156.589 225.649 154.139 223.2 151.142 223.2C148.145 223.2 145.696 225.649 145.696 228.646C145.696 231.643 148.145 234.093 151.142 234.093Z" fill="url(#paint9_linear_2744_817)"/>
<path d="M128.068 240.248C128.068 237.122 130.614 234.576 133.772 234.576C136.931 234.576 139.444 237.154 139.444 240.28C139.444 243.406 136.898 245.952 133.772 245.952C130.646 245.952 128.068 243.374 128.068 240.248Z" fill="url(#paint10_linear_2744_817)"/>
<path d="M106.67 244.405C103.963 244.405 101.739 246.597 101.739 249.336C101.739 252.075 103.931 254.266 106.67 254.266C109.409 254.266 111.601 252.075 111.601 249.336C111.601 246.597 109.377 244.405 106.67 244.405Z" fill="url(#paint11_linear_2744_817)"/>
<path d="M110.15 265.514C107.572 265.514 105.51 263.451 105.51 260.873C105.51 258.327 107.572 256.232 110.15 256.232C112.728 256.232 114.791 258.327 114.791 260.873C114.791 263.419 112.728 265.514 110.15 265.514Z" fill="url(#paint12_linear_2744_817)"/>
<path d="M95.6484 266.287C95.6484 268.736 97.6464 270.734 100.096 270.734C102.545 270.734 104.543 268.736 104.543 266.287C104.543 263.838 102.545 261.84 100.096 261.84C97.6464 261.84 95.6484 263.838 95.6484 266.287Z" fill="url(#paint13_linear_2744_817)"/>
<path d="M128.681 266.609C128.681 263.806 130.969 261.517 133.772 261.517C136.608 261.517 138.896 263.806 138.864 266.609C138.864 269.413 136.576 271.701 133.772 271.701C130.969 271.701 128.681 269.413 128.681 266.609Z" fill="url(#paint14_linear_2744_817)"/>
<path d="M196.195 246.178C199.16 246.178 201.577 243.761 201.577 240.796C201.577 237.831 199.16 235.414 196.195 235.414C193.23 235.414 190.813 237.831 190.813 240.796C190.813 243.793 193.23 246.178 196.195 246.178Z" fill="url(#paint15_linear_2744_817)"/>
<path d="M180.533 258.939C183.208 258.939 185.399 261.131 185.399 263.806C185.399 266.48 183.24 268.672 180.436 268.736C180.017 268.736 179.598 268.672 179.212 268.575C180.114 269.413 180.694 270.605 180.694 271.959C180.694 274.537 178.599 276.632 176.021 276.632C175.828 276.632 175.667 276.632 175.473 276.599C176.118 277.373 176.505 278.34 176.505 279.435C176.505 281.208 175.473 282.69 173.959 283.399C174.346 284.076 174.539 284.817 174.539 285.623C174.539 287.202 173.765 288.556 172.573 289.393C172.766 289.909 172.863 290.425 172.863 291.005C172.863 292.147 172.453 293.194 171.78 294.018C171.435 298.848 158.569 302.856 141.529 303.802C156.783 302.738 168.242 298.217 168.242 292.802C168.242 286.596 153.192 281.565 134.628 281.565C116.064 281.565 101.015 286.596 101.015 292.802C101.015 298.691 114.564 303.521 131.81 304C112.256 303.731 96.6076 299.496 95.8209 294.235C95.0193 293.377 94.5205 292.233 94.5205 290.972C94.5205 290.392 94.6171 289.877 94.8105 289.361C93.6181 288.523 92.8447 287.138 92.8447 285.591C92.8447 284.785 93.0703 284.012 93.4248 283.367C91.9423 282.69 90.8789 281.176 90.8789 279.403C90.8789 278.307 91.2978 277.341 91.9423 276.567C91.749 276.599 91.5878 276.599 91.3945 276.599C88.8164 276.599 86.7216 274.505 86.7216 271.927C86.7216 270.573 87.3017 269.349 88.2041 268.511C87.8173 268.607 87.3984 268.672 86.9795 268.672C84.2724 268.672 82.1133 266.513 82.1133 263.806C82.1133 261.099 84.3047 258.939 86.9795 258.939C89.6865 258.939 91.8457 261.131 91.8457 263.806C91.8457 265.191 91.2656 266.48 90.2988 267.35C90.6533 267.286 91.04 267.222 91.4267 267.222C94.0048 267.222 96.0996 269.316 96.0996 271.894C96.0996 273.087 95.6484 274.182 94.9072 275.02C95.0361 274.988 95.165 274.988 95.2939 274.988C97.7109 274.988 99.6767 276.954 99.6767 279.371C99.6767 280.08 99.5156 280.724 99.2255 281.305C100.449 281.794 101.412 282.806 101.837 284.066C101.714 283.642 101.643 283.194 101.643 282.723C101.643 281.466 102.126 280.306 102.932 279.468C100.966 279.016 99.4833 277.276 99.4833 275.149C99.4833 272.7 101.481 270.702 103.931 270.702C106.38 270.702 108.378 272.7 108.378 275.149C108.378 276.277 107.959 277.308 107.25 278.082C108.927 278.387 110.286 279.586 110.837 281.188C110.739 280.819 110.698 280.433 110.698 280.048C110.698 278.404 111.536 276.922 112.857 276.084C110.408 275.955 108.442 274.021 108.442 271.443C108.442 268.865 110.537 266.803 113.083 266.803C115.629 266.803 117.724 268.865 117.724 271.443C117.724 273.087 116.886 274.505 115.629 275.343C117.53 275.439 119.174 276.664 119.818 278.372C119.786 278.243 119.786 278.146 119.786 278.018C119.786 275.407 121.913 273.28 124.523 273.28C126.65 273.28 128.455 274.698 129.035 276.632C129.196 274.182 131.226 272.249 133.74 272.249C136.222 272.249 138.284 274.182 138.445 276.632C139.025 274.698 140.83 273.28 142.957 273.28C145.567 273.28 147.694 275.407 147.694 278.017C147.694 278.082 147.686 278.138 147.678 278.195C147.67 278.251 147.662 278.307 147.662 278.372C148.306 276.664 149.918 275.407 151.851 275.343C150.595 274.505 149.757 273.087 149.757 271.443C149.757 268.865 151.819 266.803 154.397 266.803C156.975 266.803 159.038 268.962 159.038 271.443C159.038 273.925 157.072 275.955 154.623 276.084C155.912 276.922 156.782 278.372 156.782 280.048C156.782 280.531 156.685 281.014 156.556 281.466H156.589C157.072 279.758 158.49 278.404 160.263 278.082C159.554 277.308 159.135 276.277 159.135 275.149C159.135 272.7 161.133 270.702 163.582 270.702C166.031 270.702 168.029 272.7 168.029 275.149C168.029 277.276 166.547 279.016 164.581 279.468C165.387 280.338 165.87 281.466 165.87 282.723C165.87 283.27 165.773 283.786 165.612 284.269H165.644C166.031 282.916 167.03 281.82 168.319 281.305C168.029 280.724 167.868 280.048 167.868 279.371C167.868 276.954 169.834 274.988 172.251 274.988C172.315 274.988 172.38 274.996 172.444 275.004C172.509 275.012 172.573 275.02 172.637 275.02C171.896 274.182 171.445 273.087 171.445 271.894C171.445 269.316 173.54 267.222 176.118 267.222C176.505 267.222 176.891 267.254 177.246 267.35C176.279 266.48 175.667 265.224 175.667 263.806C175.667 261.099 177.858 258.939 180.533 258.939Z" fill="url(#paint16_linear_2744_817)"/>
<path d="M95.5839 251.398C93.0058 251.398 90.9433 253.493 90.9433 256.039C90.9433 258.617 93.038 260.68 95.5839 260.68C98.1621 260.68 100.225 258.585 100.225 256.039C100.225 253.461 98.1298 251.398 95.5839 251.398Z" fill="url(#paint17_linear_2744_817)"/>
<path d="M128.391 254.041C128.391 251.076 130.808 248.659 133.772 248.659C136.769 248.659 139.186 251.076 139.154 254.041C139.154 257.006 136.737 259.423 133.772 259.423C130.808 259.423 128.391 257.006 128.391 254.041Z" fill="url(#paint18_linear_2744_817)"/>
<path d="M133.772 230.064C137.059 230.064 139.734 227.39 139.734 224.102C139.734 220.815 137.059 218.141 133.772 218.141C130.485 218.141 127.81 220.815 127.81 224.102C127.81 227.39 130.485 230.064 133.772 230.064Z" fill="url(#paint19_linear_2744_817)"/>
<path d="M80.7597 248.272C78.0527 248.272 75.8613 250.464 75.8613 253.171C75.8613 255.878 78.0527 258.069 80.7597 258.069C83.4668 258.069 85.6582 255.878 85.6582 253.171C85.6582 250.496 83.4668 248.272 80.7597 248.272Z" fill="url(#paint20_linear_2744_817)"/>
<path d="M85.2714 243.728C85.2714 241.021 87.4629 238.83 90.1699 238.83C92.8769 238.83 95.0683 241.021 95.0683 243.728C95.0683 246.435 92.8769 248.627 90.1699 248.627C87.4629 248.627 85.2714 246.435 85.2714 243.728Z" fill="url(#paint21_linear_2744_817)"/>
<path d="M71.3818 246.178C74.3467 246.178 76.7637 243.761 76.7637 240.796C76.7637 237.831 74.3467 235.414 71.3818 235.414C68.417 235.414 66 237.831 66 240.796C66 243.793 68.417 246.178 71.3818 246.178Z" fill="url(#paint22_linear_2744_817)"/>
<path d="M151.239 256.619C151.239 259.326 149.048 261.517 146.341 261.517C143.634 261.517 141.442 259.326 141.442 256.619C141.442 253.912 143.634 251.721 146.341 251.721C149.048 251.721 151.239 253.912 151.239 256.619Z" fill="url(#paint23_linear_2744_817)"/>
<path d="M118.014 268.124C118.014 270.799 120.205 272.99 122.88 272.99C125.555 272.99 127.746 270.799 127.746 268.124C127.746 265.449 125.555 263.258 122.88 263.258C120.173 263.258 118.014 265.417 118.014 268.124Z" fill="url(#paint24_linear_2744_817)"/>
<path d="M149.563 268.124C149.563 270.799 147.372 272.99 144.697 272.99C142.022 272.99 139.831 270.799 139.831 268.124C139.831 265.449 142.022 263.258 144.697 263.258C147.372 263.258 149.563 265.449 149.563 268.124Z" fill="url(#paint25_linear_2744_817)"/>
<path d="M116.338 256.619C116.338 259.326 118.529 261.517 121.236 261.517C123.943 261.517 126.135 259.326 126.135 256.619C126.135 253.912 123.943 251.721 121.236 251.721C118.529 251.721 116.338 253.912 116.338 256.619Z" fill="url(#paint26_linear_2744_817)"/>
<path d="M153.559 243.793C153.559 246.629 151.239 248.949 148.403 248.949C145.535 248.949 143.247 246.661 143.247 243.793C143.247 240.957 145.567 238.637 148.403 238.637C151.271 238.637 153.559 240.957 153.559 243.793Z" fill="url(#paint27_linear_2744_817)"/>
<path d="M97.1953 235.382C97.1953 238.218 99.5156 240.538 102.351 240.538C105.187 240.538 107.508 238.25 107.508 235.382C107.508 232.546 105.187 230.226 102.351 230.226C99.5156 230.226 97.1953 232.546 97.1953 235.382Z" fill="url(#paint28_linear_2744_817)"/>
<path d="M95.5195 223.974C92.3935 223.974 89.8476 221.428 89.8476 218.302C89.8476 215.144 92.3935 212.63 95.5195 212.63C98.6455 212.63 101.191 215.176 101.191 218.302C101.191 221.428 98.6455 223.974 95.5195 223.974Z" fill="url(#paint29_linear_2744_817)"/>
<path d="M110.988 228.646C110.988 231.643 113.437 234.093 116.434 234.093C119.432 234.093 121.881 231.643 121.881 228.646C121.881 225.649 119.432 223.2 116.434 223.2C113.437 223.2 110.988 225.649 110.988 228.646Z" fill="url(#paint30_linear_2744_817)"/>
<path d="M119.174 248.949C116.306 248.949 114.017 246.629 114.017 243.793C114.017 240.957 116.338 238.637 119.174 238.637C122.01 238.637 124.33 240.957 124.33 243.793C124.33 246.661 122.01 248.949 119.174 248.949Z" fill="url(#paint31_linear_2744_817)"/>
<path d="M373.284 297.435C370.211 297.435 367.455 296.893 365.014 295.808C362.574 294.678 360.631 293.165 359.184 291.266C357.783 289.368 357.015 287.267 356.88 284.962H366.438C366.619 286.408 367.319 287.606 368.539 288.555C369.805 289.504 371.364 289.978 373.217 289.978C375.024 289.978 376.425 289.617 377.42 288.894C378.459 288.171 378.979 287.244 378.979 286.115C378.979 284.894 378.346 283.99 377.081 283.403C375.86 282.77 373.895 282.092 371.183 281.369C368.381 280.691 366.076 279.991 364.269 279.268C362.506 278.545 360.97 277.438 359.659 275.946C358.394 274.455 357.761 272.444 357.761 269.913C357.761 267.834 358.348 265.936 359.523 264.219C360.744 262.502 362.461 261.146 364.675 260.152C366.935 259.157 369.579 258.66 372.607 258.66C377.081 258.66 380.651 259.79 383.317 262.05C385.984 264.264 387.452 267.269 387.723 271.065H378.64C378.504 269.574 377.871 268.399 376.742 267.54C375.657 266.637 374.188 266.185 372.335 266.185C370.618 266.185 369.285 266.501 368.336 267.134C367.432 267.766 366.98 268.648 366.98 269.777C366.98 271.043 367.613 272.015 368.878 272.692C370.144 273.325 372.109 273.98 374.776 274.658C377.487 275.336 379.724 276.037 381.487 276.76C383.249 277.483 384.763 278.613 386.029 280.149C387.339 281.64 388.017 283.629 388.062 286.115C388.062 288.284 387.452 290.227 386.232 291.944C385.057 293.662 383.34 295.017 381.08 296.012C378.866 296.961 376.267 297.435 373.284 297.435Z" fill="#B390FE"/>
<path d="M342.326 267.066V285.233C342.326 286.499 342.62 287.425 343.207 288.013C343.84 288.555 344.879 288.826 346.325 288.826H350.732V296.825H344.766C336.767 296.825 332.768 292.939 332.768 285.165V267.066H328.294V259.27H332.768V249.983H342.326V259.27H350.732V267.066H342.326Z" fill="#B390FE"/>
<path d="M303.368 297.435C299.753 297.435 296.499 296.644 293.607 295.063C290.714 293.436 288.432 291.153 286.76 288.216C285.133 285.278 284.32 281.889 284.32 278.048C284.32 274.206 285.156 270.817 286.828 267.879C288.545 264.942 290.872 262.682 293.81 261.101C296.747 259.474 300.024 258.66 303.639 258.66C307.255 258.66 310.531 259.474 313.469 261.101C316.406 262.682 318.711 264.942 320.383 267.879C322.1 270.817 322.959 274.206 322.959 278.048C322.959 281.889 322.078 285.278 320.315 288.216C318.598 291.153 316.248 293.436 313.265 295.063C310.328 296.644 307.029 297.435 303.368 297.435ZM303.368 289.165C305.085 289.165 306.69 288.758 308.181 287.945C309.718 287.086 310.938 285.821 311.842 284.149C312.745 282.477 313.197 280.443 313.197 278.048C313.197 274.477 312.248 271.743 310.35 269.845C308.497 267.902 306.215 266.93 303.504 266.93C300.792 266.93 298.51 267.902 296.657 269.845C294.849 271.743 293.945 274.477 293.945 278.048C293.945 281.618 294.827 284.375 296.589 286.318C298.397 288.216 300.657 289.165 303.368 289.165Z" fill="#B390FE"/>
<path d="M275.96 246.662V296.825H266.469V246.662H275.96Z" fill="#B390FE"/>
<path d="M242.545 297.435C239.472 297.435 236.716 296.893 234.275 295.808C231.835 294.678 229.892 293.165 228.445 291.266C227.044 289.368 226.276 287.267 226.141 284.962H235.699C235.88 286.408 236.58 287.606 237.8 288.555C239.066 289.504 240.625 289.978 242.478 289.978C244.285 289.978 245.686 289.617 246.681 288.894C247.72 288.171 248.24 287.244 248.24 286.115C248.24 284.894 247.607 283.99 246.342 283.403C245.121 282.77 243.156 282.092 240.444 281.369C237.642 280.691 235.337 279.991 233.53 279.268C231.767 278.545 230.231 277.438 228.92 275.946C227.655 274.455 227.022 272.444 227.022 269.913C227.022 267.834 227.609 265.936 228.784 264.219C230.005 262.502 231.722 261.146 233.936 260.152C236.196 259.157 238.84 258.66 241.868 258.66C246.342 258.66 249.912 259.79 252.578 262.05C255.244 264.264 256.713 267.269 256.984 271.065H247.901C247.765 269.574 247.132 268.399 246.003 267.54C244.918 266.637 243.449 266.185 241.596 266.185C239.879 266.185 238.546 266.501 237.597 267.134C236.693 267.766 236.241 268.648 236.241 269.777C236.241 271.043 236.874 272.015 238.139 272.692C239.405 273.325 241.37 273.98 244.037 274.658C246.748 275.336 248.985 276.037 250.748 276.76C252.51 277.483 254.024 278.613 255.29 280.149C256.6 281.64 257.278 283.629 257.323 286.115C257.323 288.284 256.713 290.227 255.493 291.944C254.318 293.662 252.601 295.017 250.341 296.012C248.127 296.961 245.528 297.435 242.545 297.435Z" fill="#B390FE"/>
<path d="M419.023 203.638C423.497 203.638 427.113 205.062 429.869 207.909C432.626 210.711 434.005 214.642 434.005 219.704V241.735H424.514V220.992C424.514 218.009 423.768 215.727 422.277 214.145C420.786 212.518 418.752 211.705 416.176 211.705C413.555 211.705 411.476 212.518 409.94 214.145C408.448 215.727 407.703 218.009 407.703 220.992V241.735H398.212V204.18H407.703V208.858C408.968 207.231 410.572 205.966 412.516 205.062C414.504 204.113 416.673 203.638 419.023 203.638Z" fill="white"/>
<path d="M391.721 204.18L380.74 241.735H370.504L363.657 215.501L356.81 241.735H346.507L335.457 204.18H345.083L351.726 232.787L358.912 204.18H368.945L375.995 232.719L382.638 204.18H391.721Z" fill="white"/>
<path d="M311.752 242.345C308.136 242.345 304.883 241.554 301.99 239.973C299.098 238.346 296.816 236.064 295.144 233.126C293.517 230.189 292.703 226.799 292.703 222.958C292.703 219.116 293.539 215.727 295.211 212.79C296.929 209.852 299.256 207.592 302.194 206.011C305.131 204.384 308.408 203.57 312.023 203.57C315.638 203.57 318.915 204.384 321.852 206.011C324.79 207.592 327.095 209.852 328.767 212.79C330.484 215.727 331.343 219.116 331.343 222.958C331.343 226.799 330.461 230.189 328.699 233.126C326.982 236.064 324.632 238.346 321.649 239.973C318.711 241.554 315.412 242.345 311.752 242.345ZM311.752 234.075C313.469 234.075 315.073 233.668 316.565 232.855C318.101 231.996 319.322 230.731 320.225 229.059C321.129 227.387 321.581 225.353 321.581 222.958C321.581 219.388 320.632 216.653 318.734 214.755C316.881 212.812 314.599 211.841 311.887 211.841C309.176 211.841 306.894 212.812 305.041 214.755C303.233 216.653 302.329 219.388 302.329 222.958C302.329 226.528 303.21 229.285 304.973 231.228C306.781 233.126 309.04 234.075 311.752 234.075Z" fill="white"/>
<path d="M275.804 210.01C277.024 208.022 278.606 206.463 280.549 205.333C282.537 204.203 284.797 203.638 287.328 203.638V213.603H284.82C281.837 213.603 279.577 214.303 278.041 215.704C276.549 217.105 275.804 219.546 275.804 223.026V241.735H266.313V204.18H275.804V210.01Z" fill="white"/>
<path d="M221.738 222.958C221.738 219.071 222.529 215.682 224.111 212.79C225.693 209.852 227.884 207.592 230.686 206.011C233.488 204.384 236.697 203.57 240.312 203.57C244.967 203.57 248.808 204.745 251.836 207.095C254.909 209.4 256.966 212.654 258.005 216.857H247.769C247.227 215.23 246.3 213.965 244.99 213.061C243.724 212.112 242.143 211.637 240.245 211.637C237.533 211.637 235.386 212.631 233.805 214.62C232.223 216.563 231.432 219.342 231.432 222.958C231.432 226.528 232.223 229.307 233.805 231.296C235.386 233.239 237.533 234.211 240.245 234.211C244.086 234.211 246.594 232.493 247.769 229.059H258.005C256.966 233.126 254.909 236.357 251.836 238.753C248.763 241.148 244.922 242.345 240.312 242.345C236.697 242.345 233.488 241.554 230.686 239.973C227.884 238.346 225.693 236.086 224.111 233.194C222.529 230.256 221.738 226.844 221.738 222.958Z" fill="white"/>
<defs>
<linearGradient id="paint0_linear_2744_817" x1="133.788" y1="197" x2="133.788" y2="304" gradientUnits="userSpaceOnUse">
<stop stop-color="#B592FF"/>
<stop offset="1" stop-color="#855DDD"/>
</linearGradient>
<linearGradient id="paint1_linear_2744_817" x1="133.788" y1="197" x2="133.788" y2="304" gradientUnits="userSpaceOnUse">
<stop stop-color="#B592FF"/>
<stop offset="1" stop-color="#855DDD"/>
</linearGradient>
<linearGradient id="paint2_linear_2744_817" x1="133.788" y1="197" x2="133.788" y2="304" gradientUnits="userSpaceOnUse">
<stop stop-color="#B592FF"/>
<stop offset="1" stop-color="#855DDD"/>
</linearGradient>
<linearGradient id="paint3_linear_2744_817" x1="133.788" y1="197" x2="133.788" y2="304" gradientUnits="userSpaceOnUse">
<stop stop-color="#B592FF"/>
<stop offset="1" stop-color="#855DDD"/>
</linearGradient>
<linearGradient id="paint4_linear_2744_817" x1="133.788" y1="197" x2="133.788" y2="304" gradientUnits="userSpaceOnUse">
<stop stop-color="#B592FF"/>
<stop offset="1" stop-color="#855DDD"/>
</linearGradient>
<linearGradient id="paint5_linear_2744_817" x1="133.788" y1="197" x2="133.788" y2="304" gradientUnits="userSpaceOnUse">
<stop stop-color="#B592FF"/>
<stop offset="1" stop-color="#855DDD"/>
</linearGradient>
<linearGradient id="paint6_linear_2744_817" x1="133.788" y1="197" x2="133.788" y2="304" gradientUnits="userSpaceOnUse">
<stop stop-color="#B592FF"/>
<stop offset="1" stop-color="#855DDD"/>
</linearGradient>
<linearGradient id="paint7_linear_2744_817" x1="133.788" y1="197" x2="133.788" y2="304" gradientUnits="userSpaceOnUse">
<stop stop-color="#B592FF"/>
<stop offset="1" stop-color="#855DDD"/>
</linearGradient>
<linearGradient id="paint8_linear_2744_817" x1="133.788" y1="197" x2="133.788" y2="304" gradientUnits="userSpaceOnUse">
<stop stop-color="#B592FF"/>
<stop offset="1" stop-color="#855DDD"/>
</linearGradient>
<linearGradient id="paint9_linear_2744_817" x1="133.788" y1="197" x2="133.788" y2="304" gradientUnits="userSpaceOnUse">
<stop stop-color="#B592FF"/>
<stop offset="1" stop-color="#855DDD"/>
</linearGradient>
<linearGradient id="paint10_linear_2744_817" x1="133.788" y1="197" x2="133.788" y2="304" gradientUnits="userSpaceOnUse">
<stop stop-color="#B592FF"/>
<stop offset="1" stop-color="#855DDD"/>
</linearGradient>
<linearGradient id="paint11_linear_2744_817" x1="133.788" y1="197" x2="133.788" y2="304" gradientUnits="userSpaceOnUse">
<stop stop-color="#B592FF"/>
<stop offset="1" stop-color="#855DDD"/>
</linearGradient>
<linearGradient id="paint12_linear_2744_817" x1="133.788" y1="197" x2="133.788" y2="304" gradientUnits="userSpaceOnUse">
<stop stop-color="#B592FF"/>
<stop offset="1" stop-color="#855DDD"/>
</linearGradient>
<linearGradient id="paint13_linear_2744_817" x1="133.788" y1="197" x2="133.788" y2="304" gradientUnits="userSpaceOnUse">
<stop stop-color="#B592FF"/>
<stop offset="1" stop-color="#855DDD"/>
</linearGradient>
<linearGradient id="paint14_linear_2744_817" x1="133.788" y1="197" x2="133.788" y2="304" gradientUnits="userSpaceOnUse">
<stop stop-color="#B592FF"/>
<stop offset="1" stop-color="#855DDD"/>
</linearGradient>
<linearGradient id="paint15_linear_2744_817" x1="133.788" y1="197" x2="133.788" y2="304" gradientUnits="userSpaceOnUse">
<stop stop-color="#B592FF"/>
<stop offset="1" stop-color="#855DDD"/>
</linearGradient>
<linearGradient id="paint16_linear_2744_817" x1="133.788" y1="197" x2="133.788" y2="304" gradientUnits="userSpaceOnUse">
<stop stop-color="#B592FF"/>
<stop offset="1" stop-color="#855DDD"/>
</linearGradient>
<linearGradient id="paint17_linear_2744_817" x1="133.788" y1="197" x2="133.788" y2="304" gradientUnits="userSpaceOnUse">
<stop stop-color="#B592FF"/>
<stop offset="1" stop-color="#855DDD"/>
</linearGradient>
<linearGradient id="paint18_linear_2744_817" x1="133.788" y1="197" x2="133.788" y2="304" gradientUnits="userSpaceOnUse">
<stop stop-color="#B592FF"/>
<stop offset="1" stop-color="#855DDD"/>
</linearGradient>
<linearGradient id="paint19_linear_2744_817" x1="133.788" y1="197" x2="133.788" y2="304" gradientUnits="userSpaceOnUse">
<stop stop-color="#B592FF"/>
<stop offset="1" stop-color="#855DDD"/>
</linearGradient>
<linearGradient id="paint20_linear_2744_817" x1="133.788" y1="197" x2="133.788" y2="304" gradientUnits="userSpaceOnUse">
<stop stop-color="#B592FF"/>
<stop offset="1" stop-color="#855DDD"/>
</linearGradient>
<linearGradient id="paint21_linear_2744_817" x1="133.788" y1="197" x2="133.788" y2="304" gradientUnits="userSpaceOnUse">
<stop stop-color="#B592FF"/>
<stop offset="1" stop-color="#855DDD"/>
</linearGradient>
<linearGradient id="paint22_linear_2744_817" x1="133.788" y1="197" x2="133.788" y2="304" gradientUnits="userSpaceOnUse">
<stop stop-color="#B592FF"/>
<stop offset="1" stop-color="#855DDD"/>
</linearGradient>
<linearGradient id="paint23_linear_2744_817" x1="133.788" y1="197" x2="133.788" y2="304" gradientUnits="userSpaceOnUse">
<stop stop-color="#B592FF"/>
<stop offset="1" stop-color="#855DDD"/>
</linearGradient>
<linearGradient id="paint24_linear_2744_817" x1="133.788" y1="197" x2="133.788" y2="304" gradientUnits="userSpaceOnUse">
<stop stop-color="#B592FF"/>
<stop offset="1" stop-color="#855DDD"/>
</linearGradient>
<linearGradient id="paint25_linear_2744_817" x1="133.788" y1="197" x2="133.788" y2="304" gradientUnits="userSpaceOnUse">
<stop stop-color="#B592FF"/>
<stop offset="1" stop-color="#855DDD"/>
</linearGradient>
<linearGradient id="paint26_linear_2744_817" x1="133.788" y1="197" x2="133.788" y2="304" gradientUnits="userSpaceOnUse">
<stop stop-color="#B592FF"/>
<stop offset="1" stop-color="#855DDD"/>
</linearGradient>
<linearGradient id="paint27_linear_2744_817" x1="133.788" y1="197" x2="133.788" y2="304" gradientUnits="userSpaceOnUse">
<stop stop-color="#B592FF"/>
<stop offset="1" stop-color="#855DDD"/>
</linearGradient>
<linearGradient id="paint28_linear_2744_817" x1="133.788" y1="197" x2="133.788" y2="304" gradientUnits="userSpaceOnUse">
<stop stop-color="#B592FF"/>
<stop offset="1" stop-color="#855DDD"/>
</linearGradient>
<linearGradient id="paint29_linear_2744_817" x1="133.788" y1="197" x2="133.788" y2="304" gradientUnits="userSpaceOnUse">
<stop stop-color="#B592FF"/>
<stop offset="1" stop-color="#855DDD"/>
</linearGradient>
<linearGradient id="paint30_linear_2744_817" x1="133.788" y1="197" x2="133.788" y2="304" gradientUnits="userSpaceOnUse">
<stop stop-color="#B592FF"/>
<stop offset="1" stop-color="#855DDD"/>
</linearGradient>
<linearGradient id="paint31_linear_2744_817" x1="133.788" y1="197" x2="133.788" y2="304" gradientUnits="userSpaceOnUse">
<stop stop-color="#B592FF"/>
<stop offset="1" stop-color="#855DDD"/>
</linearGradient>
</defs>
</svg>
